<?xml version="1.0" standalone="no"?>
<!DOCTYPE svg PUBLIC "-//W3C//DTD SVG 20010904//EN"
 "http://www.w3.org/TR/2001/REC-SVG-20010904/DTD/svg10.dtd">
<svg version="1.0" xmlns="http://www.w3.org/2000/svg"
 width="64.000000pt" height="64.000000pt" viewBox="0 0 64.000000 64.000000"
 preserveAspectRatio="xMidYMid meet">

<g transform="translate(0.000000,64.000000) scale(0.100000,-0.100000)"
fill="#000000" stroke="none">
<path d="M308 613 c6 -2 18 -2 25 0 6 3 1 5 -13 5 -14 0 -19 -2 -12 -5z"/>
<path d="M309 586 c-7 -33 -21 -56 -30 -50 -15 9 -10 -3 8 -17 11 -10 14 -10
9 -1 -5 8 2 12 24 12 22 0 29 -4 24 -12 -5 -9 -2 -9 9 1 18 14 23 26 8 17 -8
-6 -23 17 -25 38 -1 10 -25 21 -27 12z m26 -36 c3 -5 -3 -10 -15 -10 -12 0
-18 5 -15 10 3 6 10 10 15 10 5 0 12 -4 15 -10z"/>
<path d="M261 564 c0 -11 3 -14 6 -6 3 7 2 16 -1 19 -3 4 -6 -2 -5 -13z"/>
<path d="M371 564 c0 -11 3 -14 6 -6 3 7 2 16 -1 19 -3 4 -6 -2 -5 -13z"/>
<path d="M138 543 c6 -2 18 -2 25 0 6 3 1 5 -13 5 -14 0 -19 -2 -12 -5z"/>
<path d="M478 543 c6 -2 18 -2 25 0 6 3 1 5 -13 5 -14 0 -19 -2 -12 -5z"/>
<path d="M130 495 c-14 -36 -14 -35 21 -35 21 0 28 -4 23 -12 -4 -7 -3 -10 1
-5 5 4 19 -2 31 -14 21 -20 22 -24 9 -43 -8 -11 -15 -25 -15 -31 1 -5 8 3 16
18 8 15 30 37 47 47 18 11 27 20 22 20 -6 0 -20 -7 -31 -15 -19 -13 -23 -12
-43 9 -12 12 -18 26 -14 31 5 4 3 5 -3 2 -11 -6 -26 14 -28 37 -2 22 -27 15
-36 -9z m27 8 c-4 -3 -2 -12 4 -20 9 -10 7 -13 -9 -13 -15 0 -19 5 -15 20 3
11 10 20 16 20 6 0 7 -3 4 -7z"/>
<path d="M479 515 c-10 -38 -21 -55 -33 -48 -6 3 -8 2 -3 -2 4 -5 -2 -19 -14
-31 -20 -21 -24 -22 -43 -9 -11 8 -25 15 -31 15 -5 0 4 -9 22 -20 17 -10 39
-32 47 -47 8 -15 15 -23 16 -18 0 6 -7 20 -15 31 -13 19 -12 23 9 43 12 12 26
18 31 14 4 -5 5 -2 1 5 -5 8 2 12 23 12 35 0 35 -1 21 34 -8 23 -28 35 -31 21z
m24 -25 c4 -15 0 -20 -15 -20 -16 0 -18 3 -9 13 6 8 8 17 4 20 -3 4 -2 7 4 7
6 0 13 -9 16 -20z"/>
<path d="M92 490 c0 -14 2 -19 5 -12 2 6 2 18 0 25 -3 6 -5 1 -5 -13z"/>
<path d="M542 490 c0 -14 2 -19 5 -12 2 6 2 18 0 25 -3 6 -5 1 -5 -13z"/>
<path d="M285 389 c-4 -6 -5 -12 -2 -15 2 -3 7 2 10 11 7 17 1 20 -8 4z"/>
<path d="M346 387 c3 -10 9 -15 12 -12 3 3 0 11 -7 18 -10 9 -11 8 -5 -6z"/>
<path d="M68 373 c7 -3 16 -2 19 1 4 3 -2 6 -13 5 -11 0 -14 -3 -6 -6z"/>
<path d="M558 373 c7 -3 16 -2 19 1 4 3 -2 6 -13 5 -11 0 -14 -3 -6 -6z"/>
<path d="M100 366 c0 -2 8 -10 18 -17 15 -13 16 -12 3 4 -13 16 -21 21 -21 13z"/>
<path d="M519 353 c-13 -16 -12 -17 4 -4 9 7 17 15 17 17 0 8 -8 3 -21 -13z"/>
<path d="M59 324 c-5 -15 -7 -29 -4 -32 3 -3 5 0 5 6 0 7 9 12 21 12 11 0 17
5 14 10 -4 6 -11 8 -16 5 -5 -4 -9 -2 -9 4 0 5 6 12 13 14 9 4 9 6 -1 6 -7 1
-17 -11 -23 -25z"/>
<path d="M289 337 c7 -10 21 -17 31 -17 10 0 24 7 31 17 13 15 12 15 -8 2 -20
-12 -26 -12 -45 0 -21 13 -22 13 -9 -2z"/>
<path d="M556 342 c6 -4 13 -15 17 -24 5 -14 1 -18 -21 -19 -15 -1 -30 -1 -34
0 -13 2 -9 -6 9 -20 11 -10 14 -10 9 -1 -5 8 2 12 23 12 17 0 31 2 31 4 0 18
-22 56 -32 56 -9 0 -9 -3 -2 -8z"/>
<path d="M22 320 c0 -14 2 -19 5 -12 2 6 2 18 0 25 -3 6 -5 1 -5 -13z"/>
<path d="M612 320 c0 -14 2 -19 5 -12 2 6 2 18 0 25 -3 6 -5 1 -5 -13z"/>
<path d="M545 320 c-3 -5 -1 -10 4 -10 6 0 11 5 11 10 0 6 -2 10 -4 10 -3 0
-8 -4 -11 -10z"/>
<path d="M264 298 l-19 -23 23 19 c21 18 27 26 19 26 -2 0 -12 -10 -23 -22z"/>
<path d="M365 300 c10 -11 20 -20 23 -20 3 0 -3 9 -13 20 -10 11 -20 20 -23
20 -3 0 3 -9 13 -20z"/>
<path d="M103 283 c0 -9 4 -10 14 -2 7 6 13 12 13 14 0 1 -6 2 -13 2 -8 0 -14
-6 -14 -14z"/>
<path d="M200 285 c0 -6 7 -20 15 -31 13 -19 12 -23 -9 -43 -12 -12 -27 -18
-31 -14 -5 5 -3 0 4 -9 7 -10 16 -18 19 -18 3 0 2 3 -1 7 -4 3 2 17 14 29 20
21 24 22 43 9 11 -8 25 -15 31 -15 5 0 -4 9 -22 20 -17 10 -39 32 -47 47 -8
15 -15 23 -16 18z"/>
<path d="M422 265 c-6 -14 -26 -34 -44 -45 -18 -11 -28 -20 -23 -20 6 0 20 7
31 15 19 13 23 12 43 -9 12 -12 18 -27 14 -31 -5 -5 0 -3 10 4 9 7 17 16 17
19 0 3 -3 2 -7 -1 -3 -4 -17 2 -29 14 -21 20 -22 23 -7 46 9 13 14 26 11 28
-3 3 -10 -6 -16 -20z"/>
<path d="M68 263 c7 -3 16 -2 19 1 4 3 -2 6 -13 5 -11 0 -14 -3 -6 -6z"/>
<path d="M558 263 c7 -3 16 -2 19 1 4 3 -2 6 -13 5 -11 0 -14 -3 -6 -6z"/>
<path d="M129 154 c-5 -15 -7 -29 -4 -32 3 -3 5 0 5 6 0 7 10 13 23 13 16 1
18 2 5 6 -10 2 -18 9 -18 15 0 5 7 7 16 4 8 -3 12 -2 9 4 -11 17 -25 11 -36
-16z"/>
<path d="M475 170 c-3 -6 1 -7 9 -4 9 3 16 1 16 -4 0 -6 -8 -13 -17 -15 -14
-4 -12 -5 5 -6 12 0 22 -6 22 -13 0 -6 2 -9 5 -6 8 8 -13 58 -24 58 -5 0 -13
-4 -16 -10z"/>
<path d="M92 150 c0 -14 2 -19 5 -12 2 6 2 18 0 25 -3 6 -5 1 -5 -13z"/>
<path d="M542 150 c0 -14 2 -19 5 -12 2 6 2 18 0 25 -3 6 -5 1 -5 -13z"/>
<path d="M279 113 c-13 -16 -12 -17 4 -4 16 13 21 21 13 21 -2 0 -10 -8 -17
-17z"/>
<path d="M340 126 c0 -2 8 -10 18 -17 15 -13 16 -12 3 4 -13 16 -21 21 -21 13z"/>
<path d="M299 84 c-5 -15 -7 -29 -4 -32 3 -3 5 0 5 6 0 7 9 12 20 12 11 0 20
-5 20 -12 0 -6 2 -9 5 -6 8 8 -13 58 -25 58 -6 0 -15 -12 -21 -26z m31 6 c0
-5 -4 -10 -10 -10 -5 0 -10 5 -10 10 0 6 5 10 10 10 6 0 10 -4 10 -10z"/>
<path d="M138 93 c6 -2 18 -2 25 0 6 3 1 5 -13 5 -14 0 -19 -2 -12 -5z"/>
<path d="M478 93 c6 -2 18 -2 25 0 6 3 1 5 -13 5 -14 0 -19 -2 -12 -5z"/>
<path d="M261 74 c0 -11 3 -14 6 -6 3 7 2 16 -1 19 -3 4 -6 -2 -5 -13z"/>
<path d="M371 74 c0 -11 3 -14 6 -6 3 7 2 16 -1 19 -3 4 -6 -2 -5 -13z"/>
<path d="M78 63 c29 -2 74 -2 100 0 26 2 2 3 -53 3 -55 0 -76 -1 -47 -3z"/>
<path d="M468 63 c29 -2 74 -2 100 0 26 2 2 3 -53 3 -55 0 -76 -1 -47 -3z"/>
<path d="M274 43 c5 -9 -18 -13 -91 -16 -54 -1 8 -3 137 -3 129 0 191 2 137 3
-73 3 -96 7 -91 16 5 9 3 9 -7 0 -17 -17 -61 -17 -78 0 -10 9 -12 9 -7 0z"/>
<path d="M33 23 c9 -2 23 -2 30 0 6 3 -1 5 -18 5 -17 0 -22 -2 -12 -5z"/>
<path d="M583 23 c9 -2 23 -2 30 0 6 3 -1 5 -18 5 -16 0 -22 -2 -12 -5z"/>
</g>
</svg>
