<?xml version="1.0" standalone="no"?>
<!DOCTYPE svg PUBLIC "-//W3C//DTD SVG 20010904//EN"
 "http://www.w3.org/TR/2001/REC-SVG-20010904/DTD/svg10.dtd">
<svg version="1.0" xmlns="http://www.w3.org/2000/svg"
 width="32.000000pt" height="32.000000pt" viewBox="0 0 32.000000 32.000000"
 preserveAspectRatio="xMidYMid meet">

<g transform="translate(0.000000,32.000000) scale(0.100000,-0.100000)"
fill="#000000" stroke="none">
<path d="M244 270 c-35 -49 -71 -51 -92 -7 -17 36 -55 34 -60 -2 -5 -31 -50
-91 -68 -91 -8 0 -14 -4 -14 -10 0 -24 39 -7 66 30 35 49 71 51 92 7 17 -36
55 -34 60 2 5 31 50 91 68 91 8 0 14 5 14 10 0 24 -39 7 -66 -30z"/>
<path d="M250 140 l0 -70 30 0 30 0 0 70 0 70 -30 0 -30 0 0 -70z"/>
<path d="M90 120 c0 -49 1 -50 30 -50 29 0 30 1 30 50 0 49 -1 50 -30 50 -29
0 -30 -1 -30 -50z"/>
<path d="M170 110 c0 -38 2 -40 30 -40 28 0 30 2 30 40 0 38 -2 40 -30 40 -28
0 -30 -2 -30 -40z"/>
<path d="M10 95 c0 -21 5 -25 30 -25 25 0 30 4 30 25 0 21 -5 25 -30 25 -25 0
-30 -4 -30 -25z"/>
<path d="M12 33 c3 -16 18 -18 148 -18 130 0 145 2 148 18 3 16 -9 17 -148 17
-139 0 -151 -1 -148 -17z"/>
</g>
</svg>
