<?xml version="1.0" standalone="no"?>
<!DOCTYPE svg PUBLIC "-//W3C//DTD SVG 20010904//EN"
 "http://www.w3.org/TR/2001/REC-SVG-20010904/DTD/svg10.dtd">
<svg version="1.0" xmlns="http://www.w3.org/2000/svg"
 width="24.000000pt" height="24.000000pt" viewBox="0 0 24.000000 24.000000"
 preserveAspectRatio="xMidYMid meet">

<g transform="translate(0.000000,24.000000) scale(0.100000,-0.100000)"
fill="#000000" stroke="none">
<path d="M24 186 c-3 -9 -4 -40 -2 -71 2 -39 -1 -55 -9 -55 -7 0 -13 -4 -13
-10 0 -6 47 -10 120 -10 73 0 120 4 120 10 0 6 -6 10 -12 10 -9 0 -13 20 -13
67 l0 68 -93 3 c-75 2 -93 0 -98 -12z m176 -56 l0 -50 -80 0 -80 0 0 50 0 50
80 0 80 0 0 -50z"/>
</g>
</svg>
