<?xml version="1.0" standalone="no"?>
<!DOCTYPE svg PUBLIC "-//W3C//DTD SVG 20010904//EN"
 "http://www.w3.org/TR/2001/REC-SVG-20010904/DTD/svg10.dtd">
<svg version="1.0" xmlns="http://www.w3.org/2000/svg"
 width="32.000000pt" height="32.000000pt" viewBox="0 0 32.000000 32.000000"
 preserveAspectRatio="xMidYMid meet">

<g transform="translate(0.000000,32.000000) scale(0.100000,-0.100000)"
fill="#000000" stroke="none">
<path d="M20 160 l0 -120 140 0 c87 0 140 4 140 10 0 6 -4 10 -10 10 -5 0 -10
23 -10 50 0 28 -4 50 -10 50 -5 0 -10 -22 -10 -50 0 -27 -4 -50 -10 -50 -5 0
-10 16 -10 35 0 19 -4 35 -10 35 -5 0 -10 -16 -10 -35 0 -19 -4 -35 -10 -35
-5 0 -10 18 -10 40 0 22 -4 40 -10 40 -5 0 -10 -18 -10 -40 0 -22 -4 -40 -10
-40 -5 0 -10 14 -10 30 0 17 -4 30 -10 30 -5 0 -10 -13 -10 -30 0 -16 -4 -30
-10 -30 -5 0 -10 14 -10 30 0 17 -4 30 -10 30 -5 0 -10 -13 -10 -30 0 -16 -4
-30 -10 -30 -5 0 -10 11 -10 25 0 14 -4 25 -10 25 -5 0 -10 -11 -10 -25 0 -14
-4 -25 -10 -25 -6 0 -10 43 -10 110 0 67 -4 110 -10 110 -6 0 -10 -47 -10
-120z"/>
<path d="M253 216 c8 -19 -18 -40 -39 -32 -9 4 -23 1 -30 -5 -8 -6 -24 -9 -36
-6 -23 6 -88 -26 -88 -44 0 -13 13 -11 38 7 14 10 33 14 47 10 13 -3 27 -1 31
5 3 6 19 9 34 5 20 -3 33 1 45 14 9 10 23 16 31 13 10 -4 14 3 14 21 0 21 -5
26 -26 26 -19 0 -25 -4 -21 -14z"/>
</g>
</svg>
