<?xml version="1.0" standalone="no"?>
<!DOCTYPE svg PUBLIC "-//W3C//DTD SVG 20010904//EN"
 "http://www.w3.org/TR/2001/REC-SVG-20010904/DTD/svg10.dtd">
<svg version="1.0" xmlns="http://www.w3.org/2000/svg"
 width="64.000000pt" height="64.000000pt" viewBox="0 0 64.000000 64.000000"
 preserveAspectRatio="xMidYMid meet">

<g transform="translate(0.000000,64.000000) scale(0.100000,-0.100000)"
fill="#000000" stroke="none">
<path d="M489 611 c-30 -30 -37 -67 -19 -100 7 -14 5 -23 -9 -35 -18 -16 -22
-16 -62 4 -52 27 -112 23 -158 -9 -29 -21 -32 -21 -56 -5 -30 20 -33 8 -4 -22
18 -19 19 -26 9 -45 -7 -12 -10 -41 -7 -66 6 -52 -12 -66 -82 -67 -51 -1 -74
-24 -55 -53 16 -26 57 -23 69 4 5 12 26 29 46 38 36 16 37 16 61 -8 13 -13 41
-30 61 -38 32 -11 37 -17 37 -46 0 -18 5 -33 10 -33 6 0 10 15 10 33 0 29 5
34 49 53 63 28 82 16 74 -43 -5 -35 -2 -45 20 -67 34 -34 79 -34 112 -1 65 64
-14 168 -94 125 -14 -7 -23 -5 -35 9 -16 18 -16 22 -2 50 20 39 20 84 0 123
-16 30 -15 32 7 49 16 12 28 15 41 8 52 -28 128 20 128 81 0 43 -47 90 -90 90
-22 0 -41 -9 -61 -29z m108 -13 c29 -27 29 -65 1 -95 -27 -29 -65 -29 -95 -1
-29 27 -29 65 -1 95 27 29 65 29 95 1z m-188 -145 c14 -11 32 -38 40 -60 13
-35 13 -48 1 -85 l-13 -43 -9 33 c-5 18 -17 38 -28 44 -14 9 -17 19 -13 39 6
31 -25 69 -57 69 -31 0 -63 -38 -57 -67 3 -17 -3 -32 -19 -48 -13 -13 -24 -34
-25 -47 -1 -21 -2 -20 -14 7 -43 93 24 192 124 182 24 -3 55 -14 70 -24z m-49
-38 c26 -32 -13 -81 -47 -59 -23 14 -28 41 -13 59 16 19 44 19 60 0z m37 -101
c7 -10 13 -30 13 -46 0 -23 -6 -29 -40 -39 -31 -9 -49 -9 -80 0 -35 10 -40 16
-40 41 0 46 28 67 85 65 34 -2 52 -8 62 -21z m-301 -75 c10 -17 -13 -36 -27
-22 -12 12 -4 33 11 33 5 0 12 -5 16 -11z m484 -39 c11 -11 20 -29 20 -40 0
-26 -34 -60 -60 -60 -26 0 -60 34 -60 60 0 11 9 29 20 40 11 11 29 20 40 20
11 0 29 -9 40 -20z"/>
<path d="M60 560 c-11 -11 -20 -29 -20 -40 0 -26 34 -60 60 -60 26 0 60 34 60
60 0 26 -34 60 -60 60 -11 0 -29 -9 -40 -20z m70 -15 c15 -18 10 -45 -12 -59
-35 -22 -74 27 -48 59 16 19 44 19 60 0z"/>
<path d="M310 541 c0 -12 5 -21 10 -21 6 0 10 6 10 14 0 8 -4 18 -10 21 -5 3
-10 -3 -10 -14z"/>
<path d="M260 531 c0 -12 5 -21 10 -21 6 0 10 6 10 14 0 8 -4 18 -10 21 -5 3
-10 -3 -10 -14z"/>
<path d="M360 535 c0 -8 5 -15 10 -15 6 0 10 7 10 15 0 8 -4 15 -10 15 -5 0
-10 -7 -10 -15z"/>
<path d="M406 524 c-8 -21 -8 -24 3 -24 12 0 22 28 12 35 -5 3 -12 -2 -15 -11z"/>
<path d="M216 506 c3 -9 11 -16 16 -16 13 0 5 23 -10 28 -7 2 -10 -2 -6 -12z"/>
<path d="M296 94 c-31 -30 -9 -84 34 -84 10 0 26 7 34 16 31 30 9 84 -34 84
-10 0 -26 -7 -34 -16z m59 -34 c0 -18 -6 -26 -23 -28 -24 -4 -38 18 -28 44 3
9 15 14 28 12 17 -2 23 -10 23 -28z"/>
</g>
</svg>
