<?xml version="1.0" standalone="no"?>
<!DOCTYPE svg PUBLIC "-//W3C//DTD SVG 20010904//EN"
 "http://www.w3.org/TR/2001/REC-SVG-20010904/DTD/svg10.dtd">
<svg version="1.0" xmlns="http://www.w3.org/2000/svg"
 width="50.000000pt" height="50.000000pt" viewBox="0 0 50.000000 50.000000"
 preserveAspectRatio="xMidYMid meet">

<g transform="translate(0.000000,50.000000) scale(0.100000,-0.100000)"
fill="#000000" stroke="none">
<path d="M102 420 c-43 -41 -56 -80 -56 -170 0 -61 5 -94 17 -117 20 -38 63
-73 89 -73 20 0 79 52 91 80 6 13 8 13 14 0 12 -28 71 -80 91 -80 26 0 69 35
89 73 24 44 24 190 0 234 -20 38 -63 73 -89 73 -20 0 -79 -52 -91 -80 -6 -13
-8 -13 -14 0 -13 31 -72 80 -95 80 -13 0 -34 -9 -46 -20z m128 -101 c31 -128
-30 -265 -103 -232 -49 23 -80 147 -58 229 l11 42 44 -5 c24 -3 52 0 62 6 29
16 31 14 44 -40z m138 36 l53 0 10 -40 c22 -81 -9 -206 -58 -228 -73 -33 -134
104 -103 233 10 42 15 50 29 43 9 -4 40 -8 69 -8z"/>
<path d="M136 284 c-20 -20 -20 -48 0 -68 30 -31 84 -9 84 35 0 14 -6 18 -22
16 -17 -1 -23 3 -22 16 2 21 -19 22 -40 1z"/>
<path d="M296 284 c-31 -30 -9 -84 34 -84 21 0 50 25 50 45 0 7 -9 15 -20 18
-11 3 -20 12 -20 21 0 20 -24 21 -44 0z"/>
</g>
</svg>
